<?xml version="1.0" encoding="UTF-8" standalone="no"?>
<!-- Created with Inkscape (http://www.inkscape.org/) -->

<svg
   xmlns:dc="http://purl.org/dc/elements/1.1/"
   xmlns:cc="http://creativecommons.org/ns#"
   xmlns:rdf="http://www.w3.org/1999/02/22-rdf-syntax-ns#"
   xmlns:svg="http://www.w3.org/2000/svg"
   xmlns="http://www.w3.org/2000/svg"
   xmlns:sodipodi="http://sodipodi.sourceforge.net/DTD/sodipodi-0.dtd"
   xmlns:inkscape="http://www.inkscape.org/namespaces/inkscape"
   width="256"
   height="256"
   viewBox="0 0 256 256"
   id="svg2"
   version="1.1"
   inkscape:version="0.91 r13725"
   sodipodi:docname="bugover-256px.svg">
  <defs
     id="defs4" />
  <sodipodi:namedview
     id="base"
     pagecolor="#ffffff"
     bordercolor="#666666"
     borderopacity="1.0"
     inkscape:pageopacity="0.0"
     inkscape:pageshadow="2"
     inkscape:zoom="1.4"
     inkscape:cx="333.96531"
     inkscape:cy="160.60194"
     inkscape:document-units="px"
     inkscape:current-layer="layer1"
     showgrid="false"
     units="px"
     showborder="true"
     inkscape:window-width="1680"
     inkscape:window-height="998"
     inkscape:window-x="1672"
     inkscape:window-y="-8"
     inkscape:window-maximized="1" />
  <metadata
     id="metadata7">
    <rdf:RDF>
      <cc:Work
         rdf:about="">
        <dc:format>image/svg+xml</dc:format>
        <dc:type
           rdf:resource="http://purl.org/dc/dcmitype/StillImage" />
        <dc:title></dc:title>
      </cc:Work>
    </rdf:RDF>
  </metadata>
  <g
     inkscape:label="Layer 1"
     inkscape:groupmode="layer"
     id="layer1"
     transform="translate(0,-796.36216)">
    <path
       id="path3345"
       d="m 188.4445,796.3622 c 9.8195,0 17.778,7.35699 17.778,16.43433 0,9.07734 -7.9585,16.43434 -17.778,16.43434 l -4.5205,-0.53617 -16.41,19.41605 c 11.32,7.53032 21.153,18.19951 28.771,31.09656 -19.4305,5.79657 -42.951,9.18642 -68.2845,9.18642 -25.337,0 -48.854,-3.38985 -68.2845,-9.18642 7.3645,-12.46719 16.795,-22.85074 27.6385,-30.33253 L 70.556,828.99976 c -0.9755,0.15068 -1.9755,0.23111 -3,0.23111 -9.8195,0 -17.778,-7.357 -17.778,-16.43434 0,-9.07734 7.9585,-16.43433 17.7775,-16.43433 9.819,0 17.778,7.35699 17.778,16.43433 0,3.29972 -1.052,6.3711 -2.8615,8.94561 l 17.097,20.22815 c 8.8925,-3.99303 18.462,-6.16634 28.4305,-6.16634 9.4865,0 18.6115,1.96763 27.132,5.59782 l 17.632,-20.85721 c -1.34,-2.31105 -2.097,-4.94611 -2.097,-7.74849 0,-9.07688 7.9585,-16.43387 17.778,-16.43387 z m 56.889,138.04683 c 5.8885,0 10.6665,4.41688 10.6665,9.86032 0,5.44345 -4.778,9.86032 -10.6665,9.86032 l -32.347,0 c -0.5075,7.13236 -1.5555,14.05904 -3.0975,20.72919 l 37.618,16.20923 c 5.3405,2.30458 7.646,8.17233 5.1595,13.10871 -2.486,4.93 -8.833,7.0677 -14.1735,4.7696 l -34.646,-14.93819 c -13.153,32.35469 -38.75,55.20819 -68.736,58.35399 l 0,-150.91151 c 25.18,-0.63553 48.2915,-4.62209 67.0135,-10.9516 l 1.3885,3.20358 36.3475,-12.90028 c 5.5,-1.95191 11.6665,0.58747 13.7775,5.67178 2.1115,5.08431 -0.6385,10.78844 -6.1385,12.73943 l -37.847,13.43274 c 1.6665,6.98122 2.8055,14.26426 3.3335,21.76269 l 32.3475,0 z m -234.667,0 32.347,0 c 0.531,-7.49843 1.6635,-14.78101 3.337,-21.76269 L 8.4965,899.2136 c -5.5,-1.95145 -8.2465,-7.65512 -6.1355,-12.73943 2.111,-5.08431 8.281,-7.62323 13.781,-5.67178 l 36.3475,12.90028 1.3855,-3.20358 c 18.719,6.32951 41.8335,10.31607 67.0135,10.9516 l 0,150.91151 C 90.899,1049.2164 65.3055,1026.3629 52.149,994.00821 l -34.6425,14.93819 c -5.34,2.3045 -11.6875,0.1604 -14.177,-4.7696 C 0.84,999.23996 3.1525,993.37267 8.489,991.06809 l 37.618,-16.20923 c -1.538,-6.67015 -2.5865,-13.59683 -3.094,-20.72919 l -32.3465,0 C 4.7745,954.12967 0,949.7128 0,944.26935 c 0,-5.44344 4.7745,-9.86032 10.6665,-9.86032 z"
       inkscape:connector-curvature="0"
       style="fill:#000000" />
    <path
       style="fill:#f30000;fill-opacity:1"
       d="m 118.07012,1032.0179 c -6.24578,-1.1247 -7.02725,-2.8962 -7.48615,-16.9697 l -0.37299,-11.438 -6.48152,-2.1725 c -22.78074,-7.63566 -40.485642,-23.95301 -50.150595,-46.22017 -1.352221,-3.11539 -2.835257,-7.29358 -3.295632,-9.28486 l -0.83705,-3.62053 -11.880103,-0.32459 C 20.678297,941.52614 20,940.84661 20,924.38951 c 0,-16.20588 0.694646,-16.88835 17.836949,-17.52489 l 11.478676,-0.42625 2.372083,-7.37868 c 7.545695,-23.47186 28.450612,-43.9305 52.556282,-51.4343 l 6.32962,-1.97034 0.005,-10.23294 c 0.005,-12.1458 0.68099,-15.22015 3.7586,-17.08877 2.84912,-1.72991 13.33446,-2.50713 21.17247,-1.5694 4.66813,0.55848 6.0643,1.03108 7.61505,2.5777 1.85551,1.85055 1.90337,2.13764 2.09327,12.55976 0.1069,5.86626 0.3507,11.37051 0.54179,12.23164 0.26561,1.19692 1.50108,1.93694 5.24498,3.14162 13.8647,4.46128 24.12222,10.67729 33.92004,20.55539 10.1391,10.22219 16.96519,21.32296 20.57406,33.45815 l 1.52805,5.1382 11.05801,0.4982 c 12.05336,0.54305 15.38374,1.48021 17.03385,4.79333 1.18894,2.38719 1.1701,21.84882 -0.0245,25.33466 -1.32361,3.8622 -3.45744,4.4987 -16.47201,4.9133 l -11.36874,0.36218 -1.63764,5.15048 c -8.27589,26.02862 -27.44491,45.41343 -53.46676,54.06885 l -6.76297,2.2493 0,10.8249 c 0,12.2551 -0.76826,15.3452 -4.13508,16.632 -2.50867,0.9588 -19.06794,1.5047 -23.18011,0.7643 z m -7.93672,-47.58814 c 0.24212,-0.62994 0.44203,-4.13273 0.44425,-7.78397 0.005,-8.00298 0.92357,-11.69385 3.29725,-13.24666 2.72646,-1.7836 12.85427,-2.70092 20.64662,-1.87005 5.72589,0.61054 6.95136,0.9841 8.58993,2.61852 1.80785,1.80326 1.92211,2.34627 2.11202,10.03775 0.23901,9.67977 0.54724,11.38977 2.05304,11.38977 2.52268,0 14.99248,-6.74904 20.20476,-10.93542 5.9,-4.73877 13.16246,-12.83618 15.90244,-17.73075 1.50886,-2.69534 6.24147,-13.51618 6.24147,-14.27074 0,-0.17396 -4.25734,-0.46977 -9.46078,-0.65736 -10.82311,-0.3902 -12.67622,-1.1747 -14.35018,-6.07506 -1.22781,-3.59433 -0.87063,-22.30242 0.47202,-24.72343 1.5824,-2.85328 4.61379,-3.7893 13.88379,-4.28696 10.36842,-0.55662 10.19043,-0.27299 5.73112,-9.13227 -4.21657,-8.37712 -8.13914,-13.90137 -13.74201,-19.35334 -6.83191,-6.64788 -20.53475,-14.4818 -25.33112,-14.4818 -1.35672,0 -1.44271,0.49773 -1.44271,8.35028 0,9.62808 -0.96763,12.94263 -4.13508,14.16457 -1.11621,0.43061 -7.18696,0.96655 -13.49053,1.19099 l -11.46103,0.40807 -2.86254,-2.79074 -2.86252,-2.79074 0,-9.26622 c 0,-9.1259 -0.0247,-9.26626 -1.6318,-9.26886 -2.76728,-0.005 -15.90695,6.98814 -20.976827,11.16337 -2.644731,2.17802 -6.717128,6.22469 -9.049773,8.99257 -3.914379,4.64478 -10.433426,16.28261 -11.50203,20.53349 l -0.454152,1.80662 8.867255,0.47602 c 9.592283,0.51496 12.556988,1.52633 14.246866,4.86016 1.121401,2.21234 1.237122,20.87186 0.153605,24.7673 -1.182371,4.2508 -2.977658,4.97625 -13.430211,5.42694 -6.873246,0.29636 -9.237258,0.64471 -9.529146,1.40414 -0.640048,1.66529 6.536367,15.40634 11.021472,21.10339 5.455659,6.92986 13.494036,13.23887 22.429651,17.60416 7.86345,3.84153 8.76115,4.06714 9.41488,2.36626 z"
       id="path4167"
       inkscape:connector-curvature="0" />
  </g>
</svg>
